<svg width="90" height="138" viewBox="0 0 90 138" fill="none" xmlns="http://www.w3.org/2000/svg">
<path d="M40.2 0.24724C39.1 0.34724 37.05 0.74724 35.6 1.04724C26.95 2.99724 19.65 7.09724 13.4 13.4972C8.15 18.8972 4.9 24.1472 2.55 31.0972C1.05 35.4972 0 41.3972 0 45.4972V46.9472L17.3 68.6972C26.8 80.6472 34.7 90.5472 34.75 90.6472C34.85 90.7472 35.75 90.7972 36.75 90.7472L38.5 90.6972L20.6 68.2472C10.75 55.8972 2.65 45.6472 2.6 45.4972C2.35 44.8972 3.8 42.3972 5.05 41.0472C9.2 36.8472 16 36.7472 20.15 40.9472C20.8 41.5972 21.6 42.5972 21.9 43.1472C22.2 43.7472 26.35 54.6972 31.1 67.5472L39.7 90.8972H41.15C42.2 90.8972 42.6 90.7972 42.6 90.5972C42.6 90.4472 38.65 79.6472 33.85 66.5972C25.7 44.1472 25.2 42.7472 25.5 42.2472C26.6 40.5472 28.9 38.8972 31.1 38.2472C35.4 36.8972 40.2 38.5472 42.95 42.2472L43.6 43.1472V66.9972V90.7972H45H46.4V66.9972V43.1472L47.05 42.2472C50.95 36.8972 58.7 36.2472 63.3 40.8472C63.8 41.2972 64.3 41.9472 64.5 42.1972C64.85 42.7472 62.65 48.7972 47.55 89.5472L47.1 90.7472H48.65H50.2L58.8 67.3972C63.55 54.5972 67.7 43.4972 68.15 42.8472C69.1 41.1972 70.8 39.6972 72.85 38.6972C76.8 36.8472 81.7 37.6972 84.8 40.7972C86 41.9972 87.5 44.5972 87.4 45.1972C87.35 45.3472 79.35 55.5472 69.55 67.8472C59.8 80.0972 51.7 90.2972 51.6 90.4472C51.5 90.6472 51.85 90.7472 53.25 90.7472H55.05L56.55 88.8472C57.35 87.7972 65.2 77.9472 73.95 66.9472L89.9 46.9472V45.4972C89.9 41.3472 88.85 35.4472 87.35 31.0472C83.85 20.6472 76.5 11.5472 67.15 6.09724C59.15 1.29724 49.6 -0.75276 40.2 0.24724Z" fill="#3E73C4"/>
<g clip-path="url(#clip0_5797_1478)">
<path d="M45 138C57.1503 138 67 128.15 67 116C67 103.85 57.1503 94 45 94C32.8497 94 23 103.85 23 116C23 128.15 32.8497 138 45 138Z" fill="#3E73C4"/>
<path d="M50.5301 118.921C50.5301 116 48.7701 114.999 45.2501 114.581C42.7366 114.247 42.2348 113.58 42.2348 112.412C42.2348 111.243 43.0735 110.492 44.7483 110.492C46.2566 110.492 47.0954 110.993 47.5134 112.245C47.557 112.366 47.6366 112.471 47.7416 112.546C47.8465 112.62 47.9718 112.661 48.1005 112.662H49.4411C49.5186 112.664 49.5956 112.65 49.6676 112.622C49.7396 112.593 49.805 112.55 49.8599 112.495C49.9148 112.441 49.9581 112.376 49.987 112.304C50.0159 112.232 50.03 112.155 50.0283 112.077V111.995C49.8644 111.089 49.4059 110.262 48.7239 109.643C48.0418 109.024 47.1745 108.648 46.2566 108.573V106.571C46.2566 106.236 46.005 105.986 45.587 105.902H44.3289C43.9948 105.902 43.7431 106.153 43.6593 106.571V108.49C41.1444 108.823 39.5535 110.492 39.5535 112.579C39.5535 115.332 41.2283 116.417 44.7483 116.835C47.0954 117.252 47.8489 117.753 47.8489 119.089C47.8489 120.422 46.676 121.341 45.0838 121.341C42.9044 121.341 42.1509 120.424 41.8993 119.171C41.8168 118.838 41.5638 118.671 41.3121 118.671H39.8876C39.8103 118.669 39.7334 118.683 39.6616 118.711C39.5898 118.74 39.5245 118.783 39.4698 118.837C39.415 118.892 39.3719 118.957 39.3431 119.029C39.3142 119.101 39.3002 119.178 39.3019 119.255V119.337C39.636 121.425 40.978 122.926 43.7431 123.344V125.348C43.7431 125.68 43.9948 125.932 44.4128 126.014H45.6709C46.005 126.014 46.2566 125.764 46.3405 125.348V123.343C48.8554 122.926 50.5301 121.173 50.5301 118.919V118.921Z" fill="white"/>
<path d="M40.7265 127.683C34.1898 125.346 30.8375 118.086 33.2685 111.66C34.5253 108.154 37.2904 105.485 40.7265 104.233C41.062 104.066 41.2284 103.816 41.2284 103.398V102.229C41.2284 101.897 41.062 101.646 40.7265 101.562C40.6427 101.562 40.4749 101.562 40.391 101.645C38.5051 102.234 36.7543 103.19 35.2395 104.458C33.7246 105.727 32.4756 107.282 31.5644 109.035C30.6532 110.788 30.0977 112.704 29.93 114.673C29.7623 116.642 29.9857 118.624 30.5873 120.506C32.0943 125.181 35.6982 128.77 40.391 130.271C40.7265 130.437 41.062 130.271 41.1445 129.937C41.2284 129.854 41.2284 129.769 41.2284 129.603V128.434C41.2284 128.184 40.9782 127.851 40.7265 127.683ZM49.609 101.646C49.2735 101.479 48.938 101.646 48.8555 101.979C48.7717 102.063 48.7717 102.147 48.7717 102.313V103.482C48.7717 103.816 49.0219 104.149 49.2735 104.317C55.8103 106.654 59.1625 113.914 56.7315 120.34C55.4748 123.846 52.7097 126.515 49.2735 127.767C48.938 127.934 48.7717 128.184 48.7717 128.602V129.771C48.7717 130.103 48.938 130.354 49.2735 130.438C49.3574 130.438 49.5252 130.438 49.609 130.355C51.4949 129.766 53.2457 128.81 54.7606 127.542C56.2754 126.273 57.5244 124.718 58.4356 122.965C59.3469 121.212 59.9023 119.296 60.07 117.327C60.2377 115.358 60.0143 113.376 59.4128 111.494C57.9058 106.737 54.218 103.148 49.609 101.646Z" fill="white"/>
</g>
<defs>
<clipPath id="clip0_5797_1478">
<rect width="44" height="44" fill="white" transform="translate(23 94)"/>
</clipPath>
</defs>
</svg>
