<svg width="170" height="160" viewBox="0 0 170 160" fill="none" xmlns="http://www.w3.org/2000/svg">
<path d="M123.409 0H43.4092C21.3178 0 3.40918 17.9086 3.40918 40.0001V120C3.40918 142.092 21.3178 160 43.4092 160H123.409C145.501 160 163.409 142.092 163.409 120V40.0001C163.409 17.9086 145.501 0 123.409 0Z" fill="white"/>
<g filter="url(#filter0_d_5802_1482)">
<rect x="12.4844" y="90.4512" width="47.4728" height="30.1819" transform="rotate(-37.6696 12.4844 90.4512)" fill="#B6E7A4"/>
<path d="M126.089 39.9249L114.774 49.4503L69.4206 86.0156L59.2583 72.8263L50.2763 60.7025L27.2731 79.2482L36.2551 91.372L54.9675 116.63L63.5176 128.698L75.2639 119.228L132.364 73.1926L144.11 63.7224L126.089 39.9249Z" fill="white"/>
</g>
<path d="M123.405 0H43.4053C21.3139 0 3.40527 17.9086 3.40527 40.0001V120C3.40527 142.092 21.3139 160 43.4053 160H123.405C145.497 160 163.405 142.092 163.405 120V40.0001C163.405 17.9086 145.497 0 123.405 0Z" fill="white"/>
<g filter="url(#filter1_d_5802_1482)">
<rect x="4.35449" y="80.0176" width="57.0217" height="30.1819" transform="rotate(-38.2037 4.35449 80.0176)" fill="#645D5D"/>
<path d="M143.197 47.6041L131.883 57.1295L86.529 93.6948L76.3667 80.5055L67.3847 68.3817L44.3815 86.9274L53.3635 99.0512L72.0759 124.309L80.626 136.377L92.3723 126.907L149.472 80.8718L161.219 71.4016L143.197 47.6041Z" fill="white"/>
</g>
<path d="M123.408 0H43.4082C21.3168 0 3.4082 17.9086 3.4082 40.0001V120C3.4082 142.092 21.3168 160 43.4082 160H123.408C145.5 160 163.408 142.092 163.408 120V40.0001C163.408 17.9086 145.5 0 123.408 0Z" fill="white"/>
<g filter="url(#filter2_d_5802_1482)">
<rect x="12.4834" y="90.4512" width="47.4728" height="30.1819" transform="rotate(-37.6696 12.4834 90.4512)" fill="#B6E7A4"/>
<path d="M126.088 39.9249L114.773 49.4503L69.4196 86.0156L59.2573 72.8263L50.2754 60.7025L27.2722 79.2482L36.2541 91.372L54.9665 116.63L63.5166 128.698L75.2629 119.228L132.363 73.1926L144.109 63.7224L126.088 39.9249Z" fill="white"/>
</g>
<path d="M123.405 0H43.4053C21.3139 0 3.40527 17.9086 3.40527 40.0001V120C3.40527 142.092 21.3139 160 43.4053 160H123.405C145.497 160 163.405 142.092 163.405 120V40.0001C163.405 17.9086 145.497 0 123.405 0Z" fill="white"/>
<rect x="57" y="109" width="39" height="34" rx="5" fill="#645D5D"/>
<path d="M72.2 16.2472C71.1 16.3472 69.05 16.7472 67.6 17.0472C58.95 18.9972 51.65 23.0972 45.4 29.4972C40.15 34.8972 36.9 40.1472 34.55 47.0972C33.05 51.4972 32 57.3972 32 61.4972V62.9472L49.3 84.6972C58.8 96.6472 66.7 106.547 66.75 106.647C66.85 106.747 67.75 106.797 68.75 106.747L70.5 106.697L52.6 84.2472C42.75 71.8972 34.65 61.6472 34.6 61.4972C34.35 60.8972 35.8 58.3972 37.05 57.0472C41.2 52.8472 48 52.7472 52.15 56.9472C52.8 57.5972 53.6 58.5972 53.9 59.1472C54.2 59.7472 58.35 70.6972 63.1 83.5472L71.7 106.897H73.15C74.2 106.897 74.6 106.797 74.6 106.597C74.6 106.447 70.65 95.6472 65.85 82.5972C57.7 60.1472 57.2 58.7472 57.5 58.2472C58.6 56.5472 60.9 54.8972 63.1 54.2472C67.4 52.8972 72.2 54.5472 74.95 58.2472L75.6 59.1472V82.9972V106.797H77H78.4V82.9972V59.1472L79.05 58.2472C82.95 52.8972 90.7 52.2472 95.3 56.8472C95.8 57.2972 96.3 57.9472 96.5 58.1972C96.85 58.7472 94.65 64.7972 79.55 105.547L79.1 106.747H80.65H82.2L90.8 83.3972C95.55 70.5972 99.7 59.4972 100.15 58.8472C101.1 57.1972 102.8 55.6972 104.85 54.6972C108.8 52.8472 113.7 53.6972 116.8 56.7972C118 57.9972 119.5 60.5972 119.4 61.1972C119.35 61.3472 111.35 71.5472 101.55 83.8472C91.8 96.0972 83.7 106.297 83.6 106.447C83.5 106.647 83.85 106.747 85.25 106.747H87.05L88.55 104.847C89.35 103.797 97.2 93.9472 105.95 82.9472L121.9 62.9472V61.4972C121.9 57.3472 120.85 51.4472 119.35 47.0472C115.85 36.6472 108.5 27.5472 99.15 22.0972C91.15 17.2972 81.6 15.2472 72.2 16.2472Z" fill="#645D5D"/>
<g clip-path="url(#clip0_5802_1482)">
<path d="M76.5 141C84.5081 141 91 134.508 91 126.5C91 118.492 84.5081 112 76.5 112C68.4919 112 62 118.492 62 126.5C62 134.508 68.4919 141 76.5 141Z" fill="white"/>
<path d="M76.5643 136.576C82.1843 136.576 86.7401 132.028 86.7401 126.418C86.7401 120.808 82.1843 116.26 76.5643 116.26C71.2324 116.26 66.8583 120.353 66.4238 125.564H79.874V127.272H66.4238C66.8583 132.482 71.2324 136.576 76.5643 136.576Z" fill="#645D5D"/>
</g>
<defs>
<filter id="filter0_d_5802_1482" x="8.48438" y="39.9248" width="139.626" height="96.7734" filterUnits="userSpaceOnUse" color-interpolation-filters="sRGB">
<feFlood flood-opacity="0" result="BackgroundImageFix"/>
<feColorMatrix in="SourceAlpha" type="matrix" values="0 0 0 0 0 0 0 0 0 0 0 0 0 0 0 0 0 0 127 0" result="hardAlpha"/>
<feOffset dy="4"/>
<feGaussianBlur stdDeviation="2"/>
<feComposite in2="hardAlpha" operator="out"/>
<feColorMatrix type="matrix" values="0 0 0 0 0 0 0 0 0 0 0 0 0 0 0 0 0 0 0.25 0"/>
<feBlend mode="normal" in2="BackgroundImageFix" result="effect1_dropShadow_5802_1482"/>
<feBlend mode="normal" in="SourceGraphic" in2="effect1_dropShadow_5802_1482" result="shape"/>
</filter>
<filter id="filter1_d_5802_1482" x="0.354492" y="44.752" width="164.864" height="99.6255" filterUnits="userSpaceOnUse" color-interpolation-filters="sRGB">
<feFlood flood-opacity="0" result="BackgroundImageFix"/>
<feColorMatrix in="SourceAlpha" type="matrix" values="0 0 0 0 0 0 0 0 0 0 0 0 0 0 0 0 0 0 127 0" result="hardAlpha"/>
<feOffset dy="4"/>
<feGaussianBlur stdDeviation="2"/>
<feComposite in2="hardAlpha" operator="out"/>
<feColorMatrix type="matrix" values="0 0 0 0 0 0 0 0 0 0 0 0 0 0 0 0 0 0 0.25 0"/>
<feBlend mode="normal" in2="BackgroundImageFix" result="effect1_dropShadow_5802_1482"/>
<feBlend mode="normal" in="SourceGraphic" in2="effect1_dropShadow_5802_1482" result="shape"/>
</filter>
<filter id="filter2_d_5802_1482" x="8.4834" y="39.9248" width="139.626" height="96.7734" filterUnits="userSpaceOnUse" color-interpolation-filters="sRGB">
<feFlood flood-opacity="0" result="BackgroundImageFix"/>
<feColorMatrix in="SourceAlpha" type="matrix" values="0 0 0 0 0 0 0 0 0 0 0 0 0 0 0 0 0 0 127 0" result="hardAlpha"/>
<feOffset dy="4"/>
<feGaussianBlur stdDeviation="2"/>
<feComposite in2="hardAlpha" operator="out"/>
<feColorMatrix type="matrix" values="0 0 0 0 0 0 0 0 0 0 0 0 0 0 0 0 0 0 0.25 0"/>
<feBlend mode="normal" in2="BackgroundImageFix" result="effect1_dropShadow_5802_1482"/>
<feBlend mode="normal" in="SourceGraphic" in2="effect1_dropShadow_5802_1482" result="shape"/>
</filter>
<clipPath id="clip0_5802_1482">
<rect width="29" height="29" fill="white" transform="translate(62 112)"/>
</clipPath>
</defs>
</svg>
