<svg width="170" height="160" viewBox="0 0 170 160" fill="none" xmlns="http://www.w3.org/2000/svg">
<path d="M123.409 0H43.4092C21.3178 0 3.40918 17.9086 3.40918 40.0001V120C3.40918 142.092 21.3178 160 43.4092 160H123.409C145.501 160 163.409 142.092 163.409 120V40.0001C163.409 17.9086 145.501 0 123.409 0Z" fill="#645D5D"/>
<g filter="url(#filter0_d_5802_1481)">
<rect x="12.4844" y="90.4512" width="47.4728" height="30.1819" transform="rotate(-37.6696 12.4844 90.4512)" fill="white"/>
<path d="M126.089 39.9249L114.774 49.4503L69.4206 86.0156L59.2583 72.8263L50.2763 60.7025L27.2731 79.2482L36.2551 91.372L54.9675 116.63L63.5176 128.698L75.2639 119.228L132.364 73.1926L144.11 63.7224L126.089 39.9249Z" fill="white"/>
</g>
<path d="M123.405 0H43.4053C21.3139 0 3.40527 17.9086 3.40527 40.0001V120C3.40527 142.092 21.3139 160 43.4053 160H123.405C145.497 160 163.405 142.092 163.405 120V40.0001C163.405 17.9086 145.497 0 123.405 0Z" fill="#645D5D"/>
<g filter="url(#filter1_d_5802_1481)">
<rect x="4.35449" y="80.0176" width="57.0217" height="30.1819" transform="rotate(-38.2037 4.35449 80.0176)" fill="white"/>
<path d="M143.197 47.6041L131.883 57.1295L86.529 93.6948L76.3667 80.5055L67.3847 68.3817L44.3815 86.9274L53.3635 99.0512L72.0759 124.309L80.626 136.377L92.3723 126.907L149.472 80.8718L161.219 71.4016L143.197 47.6041Z" fill="white"/>
</g>
<path d="M123.408 0H43.4082C21.3168 0 3.4082 17.9086 3.4082 40.0001V120C3.4082 142.092 21.3168 160 43.4082 160H123.408C145.5 160 163.408 142.092 163.408 120V40.0001C163.408 17.9086 145.5 0 123.408 0Z" fill="#645D5D"/>
<g filter="url(#filter2_d_5802_1481)">
<rect x="12.4834" y="90.4512" width="47.4728" height="30.1819" transform="rotate(-37.6696 12.4834 90.4512)" fill="white"/>
<path d="M126.088 39.9249L114.773 49.4503L69.4196 86.0156L59.2573 72.8263L50.2754 60.7025L27.2722 79.2482L36.2541 91.372L54.9665 116.63L63.5166 128.698L75.2629 119.228L132.363 73.1926L144.109 63.7224L126.088 39.9249Z" fill="white"/>
</g>
<path d="M123.405 0H43.4053C21.3139 0 3.40527 17.9086 3.40527 40.0001V120C3.40527 142.092 21.3139 160 43.4053 160H123.405C145.497 160 163.405 142.092 163.405 120V40.0001C163.405 17.9086 145.497 0 123.405 0Z" fill="#645D5D"/>
<rect x="61" y="108" width="39" height="34" rx="5" fill="white"/>
<path d="M76.2 15.2472C75.1 15.3472 73.05 15.7472 71.6 16.0472C62.95 17.9972 55.65 22.0972 49.4 28.4972C44.15 33.8972 40.9 39.1472 38.55 46.0972C37.05 50.4972 36 56.3972 36 60.4972V61.9472L53.3 83.6972C62.8 95.6472 70.7 105.547 70.75 105.647C70.85 105.747 71.75 105.797 72.75 105.747L74.5 105.697L56.6 83.2472C46.75 70.8972 38.65 60.6472 38.6 60.4972C38.35 59.8972 39.8 57.3972 41.05 56.0472C45.2 51.8472 52 51.7472 56.15 55.9472C56.8 56.5972 57.6 57.5972 57.9 58.1472C58.2 58.7472 62.35 69.6972 67.1 82.5472L75.7 105.897H77.15C78.2 105.897 78.6 105.797 78.6 105.597C78.6 105.447 74.65 94.6472 69.85 81.5972C61.7 59.1472 61.2 57.7472 61.5 57.2472C62.6 55.5472 64.9 53.8972 67.1 53.2472C71.4 51.8972 76.2 53.5472 78.95 57.2472L79.6 58.1472V81.9972V105.797H81H82.4V81.9972V58.1472L83.05 57.2472C86.95 51.8972 94.7 51.2472 99.3 55.8472C99.8 56.2972 100.3 56.9472 100.5 57.1972C100.85 57.7472 98.65 63.7972 83.55 104.547L83.1 105.747H84.65H86.2L94.8 82.3972C99.55 69.5972 103.7 58.4972 104.15 57.8472C105.1 56.1972 106.8 54.6972 108.85 53.6972C112.8 51.8472 117.7 52.6972 120.8 55.7972C122 56.9972 123.5 59.5972 123.4 60.1972C123.35 60.3472 115.35 70.5472 105.55 82.8472C95.8 95.0972 87.7 105.297 87.6 105.447C87.5 105.647 87.85 105.747 89.25 105.747H91.05L92.55 103.847C93.35 102.797 101.2 92.9472 109.95 81.9472L125.9 61.9472V60.4972C125.9 56.3472 124.85 50.4472 123.35 46.0472C119.85 35.6472 112.5 26.5472 103.15 21.0972C95.15 16.2972 85.6 14.2472 76.2 15.2472Z" fill="white"/>
<g clip-path="url(#clip0_5802_1481)">
<path d="M80.5 140C88.5081 140 95 133.508 95 125.5C95 117.492 88.5081 111 80.5 111C72.4919 111 66 117.492 66 125.5C66 133.508 72.4919 140 80.5 140Z" fill="#645D5D"/>
<path d="M80.5643 135.576C86.1843 135.576 90.7401 131.028 90.7401 125.418C90.7401 119.808 86.1843 115.26 80.5643 115.26C75.2324 115.26 70.8583 119.353 70.4238 124.564H83.874V126.272H70.4238C70.8583 131.482 75.2324 135.576 80.5643 135.576Z" fill="white"/>
</g>
<defs>
<filter id="filter0_d_5802_1481" x="8.48438" y="39.9248" width="139.626" height="96.7734" filterUnits="userSpaceOnUse" color-interpolation-filters="sRGB">
<feFlood flood-opacity="0" result="BackgroundImageFix"/>
<feColorMatrix in="SourceAlpha" type="matrix" values="0 0 0 0 0 0 0 0 0 0 0 0 0 0 0 0 0 0 127 0" result="hardAlpha"/>
<feOffset dy="4"/>
<feGaussianBlur stdDeviation="2"/>
<feComposite in2="hardAlpha" operator="out"/>
<feColorMatrix type="matrix" values="0 0 0 0 0 0 0 0 0 0 0 0 0 0 0 0 0 0 0.25 0"/>
<feBlend mode="normal" in2="BackgroundImageFix" result="effect1_dropShadow_5802_1481"/>
<feBlend mode="normal" in="SourceGraphic" in2="effect1_dropShadow_5802_1481" result="shape"/>
</filter>
<filter id="filter1_d_5802_1481" x="0.354492" y="44.752" width="164.864" height="99.6255" filterUnits="userSpaceOnUse" color-interpolation-filters="sRGB">
<feFlood flood-opacity="0" result="BackgroundImageFix"/>
<feColorMatrix in="SourceAlpha" type="matrix" values="0 0 0 0 0 0 0 0 0 0 0 0 0 0 0 0 0 0 127 0" result="hardAlpha"/>
<feOffset dy="4"/>
<feGaussianBlur stdDeviation="2"/>
<feComposite in2="hardAlpha" operator="out"/>
<feColorMatrix type="matrix" values="0 0 0 0 0 0 0 0 0 0 0 0 0 0 0 0 0 0 0.25 0"/>
<feBlend mode="normal" in2="BackgroundImageFix" result="effect1_dropShadow_5802_1481"/>
<feBlend mode="normal" in="SourceGraphic" in2="effect1_dropShadow_5802_1481" result="shape"/>
</filter>
<filter id="filter2_d_5802_1481" x="8.4834" y="39.9248" width="139.626" height="96.7734" filterUnits="userSpaceOnUse" color-interpolation-filters="sRGB">
<feFlood flood-opacity="0" result="BackgroundImageFix"/>
<feColorMatrix in="SourceAlpha" type="matrix" values="0 0 0 0 0 0 0 0 0 0 0 0 0 0 0 0 0 0 127 0" result="hardAlpha"/>
<feOffset dy="4"/>
<feGaussianBlur stdDeviation="2"/>
<feComposite in2="hardAlpha" operator="out"/>
<feColorMatrix type="matrix" values="0 0 0 0 0 0 0 0 0 0 0 0 0 0 0 0 0 0 0.25 0"/>
<feBlend mode="normal" in2="BackgroundImageFix" result="effect1_dropShadow_5802_1481"/>
<feBlend mode="normal" in="SourceGraphic" in2="effect1_dropShadow_5802_1481" result="shape"/>
</filter>
<clipPath id="clip0_5802_1481">
<rect width="29" height="29" fill="white" transform="translate(66 111)"/>
</clipPath>
</defs>
</svg>
