<svg width="90" height="139" viewBox="0 0 90 139" fill="none" xmlns="http://www.w3.org/2000/svg">
<path d="M40.2 0.24724C39.1 0.34724 37.05 0.74724 35.6 1.04724C26.95 2.99724 19.65 7.09724 13.4 13.4972C8.15 18.8972 4.9 24.1472 2.55 31.0972C1.05 35.4972 0 41.3972 0 45.4972V46.9472L17.3 68.6972C26.8 80.6472 34.7 90.5472 34.75 90.6472C34.85 90.7472 35.75 90.7972 36.75 90.7472L38.5 90.6972L20.6 68.2472C10.75 55.8972 2.65 45.6472 2.6 45.4972C2.35 44.8972 3.8 42.3972 5.05 41.0472C9.2 36.8472 16 36.7472 20.15 40.9472C20.8 41.5972 21.6 42.5972 21.9 43.1472C22.2 43.7472 26.35 54.6972 31.1 67.5472L39.7 90.8972H41.15C42.2 90.8972 42.6 90.7972 42.6 90.5972C42.6 90.4472 38.65 79.6472 33.85 66.5972C25.7 44.1472 25.2 42.7472 25.5 42.2472C26.6 40.5472 28.9 38.8972 31.1 38.2472C35.4 36.8972 40.2 38.5472 42.95 42.2472L43.6 43.1472V66.9972V90.7972H45H46.4V66.9972V43.1472L47.05 42.2472C50.95 36.8972 58.7 36.2472 63.3 40.8472C63.8 41.2972 64.3 41.9472 64.5 42.1972C64.85 42.7472 62.65 48.7972 47.55 89.5472L47.1 90.7472H48.65H50.2L58.8 67.3972C63.55 54.5972 67.7 43.4972 68.15 42.8472C69.1 41.1972 70.8 39.6972 72.85 38.6972C76.8 36.8472 81.7 37.6972 84.8 40.7972C86 41.9972 87.5 44.5972 87.4 45.1972C87.35 45.3472 79.35 55.5472 69.55 67.8472C59.8 80.0972 51.7 90.2972 51.6 90.4472C51.5 90.6472 51.85 90.7472 53.25 90.7472H55.05L56.55 88.8472C57.35 87.7972 65.2 77.9472 73.95 66.9472L89.9 46.9472V45.4972C89.9 41.3472 88.85 35.4472 87.35 31.0472C83.85 20.6472 76.5 11.5472 67.15 6.09724C59.15 1.29724 49.6 -0.75276 40.2 0.24724Z" fill="#0052FF"/>
<g clip-path="url(#clip0_5794_1391)">
<path d="M44.5 139C56.9264 139 67 128.926 67 116.5C67 104.074 56.9264 94 44.5 94C32.0736 94 22 104.074 22 116.5C22 128.926 32.0736 139 44.5 139Z" fill="#0052FF"/>
<path d="M44.5995 132.136C53.3202 132.136 60.3895 125.079 60.3895 116.373C60.3895 107.668 53.3202 100.61 44.5995 100.61C36.3258 100.61 29.5384 106.963 28.8643 115.048H49.7353V117.698H28.8643C29.5384 125.783 36.3258 132.136 44.5995 132.136Z" fill="white"/>
</g>
<defs>
<clipPath id="clip0_5794_1391">
<rect width="45" height="45" fill="white" transform="translate(22 94)"/>
</clipPath>
</defs>
</svg>
