<svg width="869" height="160" viewBox="0 0 869 160" fill="none" xmlns="http://www.w3.org/2000/svg">
<path d="M239.929 61.8267C239.588 58.3892 238.125 55.7187 235.54 53.8153C232.955 51.9119 229.446 50.9602 225.014 50.9602C222.003 50.9602 219.46 51.3864 217.386 52.2386C215.313 53.0625 213.722 54.2131 212.614 55.6903C211.534 57.1676 210.994 58.8438 210.994 60.7188C210.938 62.2812 211.264 63.6449 211.974 64.8097C212.713 65.9744 213.722 66.983 215 67.8352C216.278 68.6591 217.756 69.3835 219.432 70.0085C221.108 70.6051 222.898 71.1165 224.801 71.5426L232.642 73.4176C236.449 74.2699 239.943 75.4062 243.125 76.8267C246.307 78.2472 249.063 79.9943 251.392 82.0682C253.722 84.142 255.526 86.5852 256.804 89.3977C258.111 92.2102 258.778 95.4347 258.807 99.071C258.778 104.412 257.415 109.043 254.716 112.963C252.045 116.855 248.182 119.881 243.125 122.04C238.097 124.17 232.031 125.236 224.929 125.236C217.884 125.236 211.747 124.156 206.52 121.997C201.321 119.838 197.259 116.642 194.332 112.409C191.435 108.148 189.915 102.878 189.773 96.5994H207.628C207.827 99.5256 208.665 101.969 210.142 103.929C211.648 105.861 213.651 107.324 216.151 108.318C218.679 109.284 221.534 109.767 224.716 109.767C227.841 109.767 230.554 109.312 232.855 108.403C235.185 107.494 236.989 106.23 238.267 104.611C239.545 102.991 240.185 101.131 240.185 99.0284C240.185 97.0682 239.602 95.4205 238.438 94.0852C237.301 92.75 235.625 91.6136 233.409 90.6761C231.222 89.7386 228.537 88.8864 225.355 88.1193L215.852 85.733C208.494 83.9432 202.685 81.1449 198.423 77.3381C194.162 73.5312 192.045 68.4034 192.074 61.9545C192.045 56.6705 193.452 52.054 196.293 48.1051C199.162 44.1562 203.097 41.0739 208.097 38.858C213.097 36.642 218.778 35.5341 225.142 35.5341C231.619 35.5341 237.273 36.642 242.102 38.858C246.96 41.0739 250.739 44.1562 253.438 48.1051C256.136 52.054 257.528 56.6278 257.614 61.8267H239.929ZM270.877 124V58.5455H288.178V70.0938H288.945C290.309 66.2585 292.582 63.233 295.763 61.017C298.945 58.8011 302.752 57.6932 307.184 57.6932C311.673 57.6932 315.494 58.8153 318.647 61.0597C321.8 63.2756 323.903 66.2869 324.954 70.0938H325.636C326.971 66.3438 329.386 63.3466 332.88 61.1023C336.403 58.8295 340.565 57.6932 345.366 57.6932C351.474 57.6932 356.431 59.6392 360.238 63.5312C364.073 67.3949 365.991 72.8778 365.991 79.9801V124H347.88V83.5597C347.88 79.9233 346.914 77.196 344.982 75.3778C343.05 73.5597 340.636 72.6506 337.738 72.6506C334.442 72.6506 331.871 73.7017 330.025 75.804C328.178 77.8778 327.255 80.6193 327.255 84.0284V124H309.656V83.1761C309.656 79.9659 308.732 77.4091 306.886 75.5057C305.067 73.6023 302.667 72.6506 299.684 72.6506C297.667 72.6506 295.849 73.1619 294.229 74.1847C292.638 75.179 291.374 76.5852 290.437 78.4034C289.499 80.1932 289.031 82.2955 289.031 84.7102V124H270.877ZM398.995 125.236C394.819 125.236 391.097 124.511 387.83 123.062C384.563 121.585 381.978 119.412 380.075 116.543C378.2 113.645 377.262 110.037 377.262 105.719C377.262 102.082 377.93 99.0284 379.265 96.5568C380.6 94.0852 382.418 92.0966 384.719 90.5909C387.021 89.0852 389.634 87.9489 392.56 87.1818C395.515 86.4148 398.612 85.875 401.85 85.5625C405.657 85.1648 408.725 84.7955 411.055 84.4545C413.384 84.0852 415.075 83.5455 416.126 82.8352C417.177 82.125 417.702 81.0739 417.702 79.6818V79.4261C417.702 76.7273 416.85 74.6392 415.146 73.1619C413.469 71.6847 411.083 70.946 407.987 70.946C404.719 70.946 402.12 71.6705 400.188 73.1193C398.256 74.5398 396.978 76.3295 396.353 78.4886L379.563 77.125C380.415 73.1477 382.092 69.7102 384.592 66.8125C387.092 63.8864 390.316 61.642 394.265 60.0795C398.242 58.4886 402.844 57.6932 408.072 57.6932C411.708 57.6932 415.188 58.1193 418.512 58.9716C421.864 59.8239 424.833 61.1449 427.418 62.9347C430.032 64.7244 432.092 67.0256 433.597 69.8381C435.103 72.6222 435.856 75.9602 435.856 79.8523V124H418.64V114.923H418.129C417.077 116.969 415.671 118.773 413.91 120.335C412.148 121.869 410.032 123.077 407.56 123.957C405.089 124.81 402.234 125.236 398.995 125.236ZM404.194 112.707C406.864 112.707 409.222 112.182 411.268 111.131C413.313 110.051 414.918 108.602 416.083 106.784C417.248 104.966 417.83 102.906 417.83 100.605V93.6591C417.262 94.0284 416.481 94.3693 415.487 94.6818C414.521 94.9659 413.427 95.2358 412.205 95.4915C410.984 95.7187 409.762 95.9318 408.54 96.1307C407.319 96.3011 406.211 96.4574 405.217 96.5994C403.086 96.9119 401.225 97.4091 399.634 98.0909C398.043 98.7727 396.808 99.696 395.927 100.861C395.046 101.997 394.606 103.418 394.606 105.122C394.606 107.594 395.501 109.483 397.29 110.79C399.109 112.068 401.41 112.707 404.194 112.707ZM449.94 124V58.5455H467.539V69.9659H468.221C469.414 65.9034 471.417 62.8352 474.229 60.7614C477.042 58.6591 480.281 57.608 483.945 57.608C484.854 57.608 485.835 57.6648 486.886 57.7784C487.937 57.892 488.86 58.0483 489.656 58.2472V74.3551C488.803 74.0994 487.624 73.8722 486.119 73.6733C484.613 73.4744 483.235 73.375 481.985 73.375C479.315 73.375 476.928 73.9574 474.826 75.1222C472.752 76.2585 471.104 77.8494 469.883 79.8949C468.69 81.9403 468.093 84.2983 468.093 86.9688V124H449.94ZM537.138 58.5455V72.1818H497.72V58.5455H537.138ZM506.669 42.8636H524.822V103.886C524.822 105.562 525.078 106.869 525.589 107.807C526.101 108.716 526.811 109.355 527.72 109.724C528.658 110.094 529.737 110.278 530.959 110.278C531.811 110.278 532.663 110.207 533.516 110.065C534.368 109.895 535.021 109.767 535.476 109.682L538.331 123.19C537.422 123.474 536.143 123.801 534.496 124.17C532.848 124.568 530.845 124.81 528.487 124.895C524.112 125.065 520.277 124.483 516.982 123.148C513.714 121.812 511.172 119.739 509.354 116.926C507.536 114.114 506.641 110.562 506.669 106.273V42.8636Z" fill="#2D85F3"/>
<path d="M581.648 124H550.71V36.7273H581.903C590.682 36.7273 598.239 38.4744 604.574 41.9688C610.909 45.4347 615.781 50.4205 619.19 56.9261C622.628 63.4318 624.347 71.2159 624.347 80.2784C624.347 89.3693 622.628 97.1818 619.19 103.716C615.781 110.25 610.881 115.264 604.489 118.759C598.125 122.253 590.511 124 581.648 124ZM569.162 108.19H580.881C586.335 108.19 590.923 107.224 594.645 105.293C598.395 103.332 601.207 100.307 603.082 96.2159C604.986 92.0966 605.938 86.7841 605.938 80.2784C605.938 73.8295 604.986 68.5597 603.082 64.4688C601.207 60.3778 598.409 57.3665 594.688 55.4347C590.966 53.5028 586.378 52.5369 580.923 52.5369H569.162V108.19ZM637.674 124V58.5455H655.273V69.9659H655.955C657.148 65.9034 659.151 62.8352 661.964 60.7614C664.776 58.6591 668.015 57.608 671.68 57.608C672.589 57.608 673.569 57.6648 674.62 57.7784C675.671 57.892 676.594 58.0483 677.39 58.2472V74.3551C676.538 74.0994 675.359 73.8722 673.853 73.6733C672.347 73.4744 670.969 73.375 669.719 73.375C667.049 73.375 664.663 73.9574 662.56 75.1222C660.487 76.2585 658.839 77.8494 657.617 79.8949C656.424 81.9403 655.827 84.2983 655.827 86.9688V124H637.674ZM713.303 125.278C706.683 125.278 700.959 123.872 696.129 121.06C691.328 118.219 687.621 114.27 685.007 109.213C682.393 104.128 681.087 98.233 681.087 91.5284C681.087 84.767 682.393 78.858 685.007 73.8011C687.621 68.7159 691.328 64.767 696.129 61.9545C700.959 59.1136 706.683 57.6932 713.303 57.6932C719.922 57.6932 725.632 59.1136 730.433 61.9545C735.263 64.767 738.984 68.7159 741.598 73.8011C744.212 78.858 745.518 84.767 745.518 91.5284C745.518 98.233 744.212 104.128 741.598 109.213C738.984 114.27 735.263 118.219 730.433 121.06C725.632 123.872 719.922 125.278 713.303 125.278ZM713.388 111.216C716.399 111.216 718.913 110.364 720.93 108.659C722.947 106.926 724.467 104.568 725.49 101.585C726.541 98.6023 727.067 95.2074 727.067 91.4006C727.067 87.5938 726.541 84.1989 725.49 81.2159C724.467 78.233 722.947 75.875 720.93 74.142C718.913 72.4091 716.399 71.5426 713.388 71.5426C710.348 71.5426 707.791 72.4091 705.717 74.142C703.672 75.875 702.124 78.233 701.072 81.2159C700.05 84.1989 699.538 87.5938 699.538 91.4006C699.538 95.2074 700.05 98.6023 701.072 101.585C702.124 104.568 703.672 106.926 705.717 108.659C707.791 110.364 710.348 111.216 713.388 111.216ZM757.322 148.545V58.5455H775.22V69.5398H776.03C776.825 67.7784 777.976 65.9886 779.482 64.1705C781.016 62.3239 783.004 60.7898 785.447 59.5682C787.919 58.3182 790.987 57.6932 794.652 57.6932C799.425 57.6932 803.828 58.9432 807.862 61.4432C811.896 63.9148 815.121 67.6506 817.536 72.6506C819.95 77.6222 821.158 83.858 821.158 91.358C821.158 98.6591 819.979 104.824 817.621 109.852C815.291 114.852 812.109 118.645 808.075 121.23C804.07 123.787 799.581 125.065 794.609 125.065C791.087 125.065 788.089 124.483 785.618 123.318C783.175 122.153 781.172 120.69 779.609 118.929C778.047 117.139 776.854 115.335 776.03 113.517H775.476V148.545H757.322ZM775.092 91.2727C775.092 95.1648 775.632 98.5597 776.712 101.457C777.791 104.355 779.354 106.614 781.399 108.233C783.445 109.824 785.93 110.619 788.857 110.619C791.811 110.619 794.311 109.81 796.357 108.19C798.402 106.543 799.95 104.27 801.001 101.372C802.081 98.446 802.621 95.0795 802.621 91.2727C802.621 87.4943 802.095 84.1705 801.044 81.3011C799.993 78.4318 798.445 76.1875 796.399 74.5682C794.354 72.9489 791.839 72.1392 788.857 72.1392C785.902 72.1392 783.402 72.9205 781.357 74.483C779.339 76.0455 777.791 78.2614 776.712 81.1307C775.632 84 775.092 87.3807 775.092 91.2727Z" fill="#645D5D"/>
<path d="M123.409 0H43.4092C21.3178 0 3.40918 17.9086 3.40918 40.0001V120C3.40918 142.092 21.3178 160 43.4092 160H123.409C145.501 160 163.409 142.092 163.409 120V40.0001C163.409 17.9086 145.501 0 123.409 0Z" fill="#645D5D"/>
<g filter="url(#filter0_d_5799_1479)">
<rect x="12.4844" y="90.4512" width="47.4728" height="30.1819" transform="rotate(-37.6696 12.4844 90.4512)" fill="white"/>
<path d="M126.089 39.9249L114.774 49.4503L69.4206 86.0156L59.2583 72.8263L50.2763 60.7025L27.2731 79.2482L36.2551 91.372L54.9675 116.63L63.5176 128.698L75.2639 119.228L132.364 73.1926L144.11 63.7224L126.089 39.9249Z" fill="white"/>
</g>
<path d="M123.405 0H43.4053C21.3139 0 3.40527 17.9086 3.40527 40.0001V120C3.40527 142.092 21.3139 160 43.4053 160H123.405C145.497 160 163.405 142.092 163.405 120V40.0001C163.405 17.9086 145.497 0 123.405 0Z" fill="#645D5D"/>
<g filter="url(#filter1_d_5799_1479)">
<rect x="4.35449" y="80.0176" width="57.0217" height="30.1819" transform="rotate(-38.2037 4.35449 80.0176)" fill="white"/>
<path d="M143.197 47.6041L131.883 57.1295L86.529 93.6948L76.3667 80.5055L67.3847 68.3817L44.3815 86.9274L53.3635 99.0512L72.0759 124.309L80.626 136.377L92.3723 126.907L149.472 80.8718L161.219 71.4016L143.197 47.6041Z" fill="white"/>
</g>
<path d="M123.408 0H43.4082C21.3168 0 3.4082 17.9086 3.4082 40.0001V120C3.4082 142.092 21.3168 160 43.4082 160H123.408C145.5 160 163.408 142.092 163.408 120V40.0001C163.408 17.9086 145.5 0 123.408 0Z" fill="#645D5D"/>
<g filter="url(#filter2_d_5799_1479)">
<rect x="12.4834" y="90.4512" width="47.4728" height="30.1819" transform="rotate(-37.6696 12.4834 90.4512)" fill="white"/>
<path d="M126.088 39.9249L114.773 49.4503L69.4196 86.0156L59.2573 72.8263L50.2754 60.7025L27.2722 79.2482L36.2541 91.372L54.9665 116.63L63.5166 128.698L75.2629 119.228L132.363 73.1926L144.109 63.7224L126.088 39.9249Z" fill="white"/>
</g>
<path d="M123.405 0H43.4053C21.3139 0 3.40527 17.9086 3.40527 40.0001V120C3.40527 142.092 21.3139 160 43.4053 160H123.405C145.497 160 163.405 142.092 163.405 120V40.0001C163.405 17.9086 145.497 0 123.405 0Z" fill="#645D5D"/>
<path d="M123.409 0H43.4092C21.3178 0 3.40918 17.9086 3.40918 40.0001V120C3.40918 142.092 21.3178 160 43.4092 160H123.409C145.501 160 163.409 142.092 163.409 120V40.0001C163.409 17.9086 145.501 0 123.409 0Z" fill="#645D5D"/>
<g filter="url(#filter3_d_5799_1479)">
<rect x="12.4844" y="90.4512" width="47.4728" height="30.1819" transform="rotate(-37.6696 12.4844 90.4512)" fill="white"/>
<path d="M126.089 39.9249L114.774 49.4503L69.4206 86.0156L59.2583 72.8263L50.2763 60.7025L27.2731 79.2482L36.2551 91.372L54.9675 116.63L63.5176 128.698L75.2639 119.228L132.364 73.1926L144.11 63.7224L126.089 39.9249Z" fill="white"/>
</g>
<path d="M123.405 0H43.4053C21.3139 0 3.40527 17.9086 3.40527 40.0001V120C3.40527 142.092 21.3139 160 43.4053 160H123.405C145.497 160 163.405 142.092 163.405 120V40.0001C163.405 17.9086 145.497 0 123.405 0Z" fill="#645D5D"/>
<g filter="url(#filter4_d_5799_1479)">
<rect x="4.35449" y="80.0176" width="57.0217" height="30.1819" transform="rotate(-38.2037 4.35449 80.0176)" fill="white"/>
<path d="M143.197 47.6041L131.883 57.1295L86.529 93.6948L76.3667 80.5055L67.3847 68.3817L44.3815 86.9274L53.3635 99.0512L72.0759 124.309L80.626 136.377L92.3723 126.907L149.472 80.8718L161.219 71.4016L143.197 47.6041Z" fill="white"/>
</g>
<path d="M123.408 0H43.4082C21.3168 0 3.4082 17.9086 3.4082 40.0001V120C3.4082 142.092 21.3168 160 43.4082 160H123.408C145.5 160 163.408 142.092 163.408 120V40.0001C163.408 17.9086 145.5 0 123.408 0Z" fill="#645D5D"/>
<g filter="url(#filter5_d_5799_1479)">
<rect x="12.4834" y="90.4512" width="47.4728" height="30.1819" transform="rotate(-37.6696 12.4834 90.4512)" fill="white"/>
<path d="M126.088 39.9249L114.773 49.4503L69.4196 86.0156L59.2573 72.8263L50.2754 60.7025L27.2722 79.2482L36.2541 91.372L54.9665 116.63L63.5166 128.698L75.2629 119.228L132.363 73.1926L144.109 63.7224L126.088 39.9249Z" fill="white"/>
</g>
<path d="M123.405 0H43.4053C21.3139 0 3.40527 17.9086 3.40527 40.0001V120C3.40527 142.092 21.3139 160 43.4053 160H123.405C145.497 160 163.405 142.092 163.405 120V40.0001C163.405 17.9086 145.497 0 123.405 0Z" fill="#645D5D"/>
<rect x="61" y="108" width="39" height="34" rx="5" fill="white"/>
<path d="M76.2 15.2472C75.1 15.3472 73.05 15.7472 71.6 16.0472C62.95 17.9972 55.65 22.0972 49.4 28.4972C44.15 33.8972 40.9 39.1472 38.55 46.0972C37.05 50.4972 36 56.3972 36 60.4972V61.9472L53.3 83.6972C62.8 95.6472 70.7 105.547 70.75 105.647C70.85 105.747 71.75 105.797 72.75 105.747L74.5 105.697L56.6 83.2472C46.75 70.8972 38.65 60.6472 38.6 60.4972C38.35 59.8972 39.8 57.3972 41.05 56.0472C45.2 51.8472 52 51.7472 56.15 55.9472C56.8 56.5972 57.6 57.5972 57.9 58.1472C58.2 58.7472 62.35 69.6972 67.1 82.5472L75.7 105.897H77.15C78.2 105.897 78.6 105.797 78.6 105.597C78.6 105.447 74.65 94.6472 69.85 81.5972C61.7 59.1472 61.2 57.7472 61.5 57.2472C62.6 55.5472 64.9 53.8972 67.1 53.2472C71.4 51.8972 76.2 53.5472 78.95 57.2472L79.6 58.1472V81.9972V105.797H81H82.4V81.9972V58.1472L83.05 57.2472C86.95 51.8972 94.7 51.2472 99.3 55.8472C99.8 56.2972 100.3 56.9472 100.5 57.1972C100.85 57.7472 98.65 63.7972 83.55 104.547L83.1 105.747H84.65H86.2L94.8 82.3972C99.55 69.5972 103.7 58.4972 104.15 57.8472C105.1 56.1972 106.8 54.6972 108.85 53.6972C112.8 51.8472 117.7 52.6972 120.8 55.7972C122 56.9972 123.5 59.5972 123.4 60.1972C123.35 60.3472 115.35 70.5472 105.55 82.8472C95.8 95.0972 87.7 105.297 87.6 105.447C87.5 105.647 87.85 105.747 89.25 105.747H91.05L92.55 103.847C93.35 102.797 101.2 92.9472 109.95 81.9472L125.9 61.9472V60.4972C125.9 56.3472 124.85 50.4472 123.35 46.0472C119.85 35.6472 112.5 26.5472 103.15 21.0972C95.15 16.2972 85.6 14.2472 76.2 15.2472Z" fill="white"/>
<g clip-path="url(#clip0_5799_1479)">
<path d="M80.5 140C88.5081 140 95 133.508 95 125.5C95 117.492 88.5081 111 80.5 111C72.4919 111 66 117.492 66 125.5C66 133.508 72.4919 140 80.5 140Z" fill="#645D5D"/>
<path d="M80.5643 135.576C86.1843 135.576 90.7401 131.028 90.7401 125.418C90.7401 119.808 86.1843 115.26 80.5643 115.26C75.2324 115.26 70.8583 119.353 70.4238 124.564H83.874V126.272H70.4238C70.8583 131.482 75.2324 135.576 80.5643 135.576Z" fill="white"/>
</g>
<defs>
<filter id="filter0_d_5799_1479" x="8.48438" y="39.9248" width="139.626" height="96.7734" filterUnits="userSpaceOnUse" color-interpolation-filters="sRGB">
<feFlood flood-opacity="0" result="BackgroundImageFix"/>
<feColorMatrix in="SourceAlpha" type="matrix" values="0 0 0 0 0 0 0 0 0 0 0 0 0 0 0 0 0 0 127 0" result="hardAlpha"/>
<feOffset dy="4"/>
<feGaussianBlur stdDeviation="2"/>
<feComposite in2="hardAlpha" operator="out"/>
<feColorMatrix type="matrix" values="0 0 0 0 0 0 0 0 0 0 0 0 0 0 0 0 0 0 0.25 0"/>
<feBlend mode="normal" in2="BackgroundImageFix" result="effect1_dropShadow_5799_1479"/>
<feBlend mode="normal" in="SourceGraphic" in2="effect1_dropShadow_5799_1479" result="shape"/>
</filter>
<filter id="filter1_d_5799_1479" x="0.354492" y="44.752" width="164.864" height="99.6255" filterUnits="userSpaceOnUse" color-interpolation-filters="sRGB">
<feFlood flood-opacity="0" result="BackgroundImageFix"/>
<feColorMatrix in="SourceAlpha" type="matrix" values="0 0 0 0 0 0 0 0 0 0 0 0 0 0 0 0 0 0 127 0" result="hardAlpha"/>
<feOffset dy="4"/>
<feGaussianBlur stdDeviation="2"/>
<feComposite in2="hardAlpha" operator="out"/>
<feColorMatrix type="matrix" values="0 0 0 0 0 0 0 0 0 0 0 0 0 0 0 0 0 0 0.25 0"/>
<feBlend mode="normal" in2="BackgroundImageFix" result="effect1_dropShadow_5799_1479"/>
<feBlend mode="normal" in="SourceGraphic" in2="effect1_dropShadow_5799_1479" result="shape"/>
</filter>
<filter id="filter2_d_5799_1479" x="8.4834" y="39.9248" width="139.626" height="96.7734" filterUnits="userSpaceOnUse" color-interpolation-filters="sRGB">
<feFlood flood-opacity="0" result="BackgroundImageFix"/>
<feColorMatrix in="SourceAlpha" type="matrix" values="0 0 0 0 0 0 0 0 0 0 0 0 0 0 0 0 0 0 127 0" result="hardAlpha"/>
<feOffset dy="4"/>
<feGaussianBlur stdDeviation="2"/>
<feComposite in2="hardAlpha" operator="out"/>
<feColorMatrix type="matrix" values="0 0 0 0 0 0 0 0 0 0 0 0 0 0 0 0 0 0 0.25 0"/>
<feBlend mode="normal" in2="BackgroundImageFix" result="effect1_dropShadow_5799_1479"/>
<feBlend mode="normal" in="SourceGraphic" in2="effect1_dropShadow_5799_1479" result="shape"/>
</filter>
<filter id="filter3_d_5799_1479" x="8.48438" y="39.9248" width="139.626" height="96.7734" filterUnits="userSpaceOnUse" color-interpolation-filters="sRGB">
<feFlood flood-opacity="0" result="BackgroundImageFix"/>
<feColorMatrix in="SourceAlpha" type="matrix" values="0 0 0 0 0 0 0 0 0 0 0 0 0 0 0 0 0 0 127 0" result="hardAlpha"/>
<feOffset dy="4"/>
<feGaussianBlur stdDeviation="2"/>
<feComposite in2="hardAlpha" operator="out"/>
<feColorMatrix type="matrix" values="0 0 0 0 0 0 0 0 0 0 0 0 0 0 0 0 0 0 0.25 0"/>
<feBlend mode="normal" in2="BackgroundImageFix" result="effect1_dropShadow_5799_1479"/>
<feBlend mode="normal" in="SourceGraphic" in2="effect1_dropShadow_5799_1479" result="shape"/>
</filter>
<filter id="filter4_d_5799_1479" x="0.354492" y="44.752" width="164.864" height="99.6255" filterUnits="userSpaceOnUse" color-interpolation-filters="sRGB">
<feFlood flood-opacity="0" result="BackgroundImageFix"/>
<feColorMatrix in="SourceAlpha" type="matrix" values="0 0 0 0 0 0 0 0 0 0 0 0 0 0 0 0 0 0 127 0" result="hardAlpha"/>
<feOffset dy="4"/>
<feGaussianBlur stdDeviation="2"/>
<feComposite in2="hardAlpha" operator="out"/>
<feColorMatrix type="matrix" values="0 0 0 0 0 0 0 0 0 0 0 0 0 0 0 0 0 0 0.25 0"/>
<feBlend mode="normal" in2="BackgroundImageFix" result="effect1_dropShadow_5799_1479"/>
<feBlend mode="normal" in="SourceGraphic" in2="effect1_dropShadow_5799_1479" result="shape"/>
</filter>
<filter id="filter5_d_5799_1479" x="8.4834" y="39.9248" width="139.626" height="96.7734" filterUnits="userSpaceOnUse" color-interpolation-filters="sRGB">
<feFlood flood-opacity="0" result="BackgroundImageFix"/>
<feColorMatrix in="SourceAlpha" type="matrix" values="0 0 0 0 0 0 0 0 0 0 0 0 0 0 0 0 0 0 127 0" result="hardAlpha"/>
<feOffset dy="4"/>
<feGaussianBlur stdDeviation="2"/>
<feComposite in2="hardAlpha" operator="out"/>
<feColorMatrix type="matrix" values="0 0 0 0 0 0 0 0 0 0 0 0 0 0 0 0 0 0 0.25 0"/>
<feBlend mode="normal" in2="BackgroundImageFix" result="effect1_dropShadow_5799_1479"/>
<feBlend mode="normal" in="SourceGraphic" in2="effect1_dropShadow_5799_1479" result="shape"/>
</filter>
<clipPath id="clip0_5799_1479">
<rect width="29" height="29" fill="white" transform="translate(66 111)"/>
</clipPath>
</defs>
</svg>
